HIERARCHY
ROOT hip
{
  OFFSET 0 0 0
  CHANNELS 6 Xposition Yposition Zposition Zrotation Yrotation Xrotation
  JOINT abdomen
  {
    OFFSET 0 20.6881 -0.73152
    CHANNELS 3 Zrotation Xrotation Yrotation
    JOINT chest
    {
      OFFSET 0 11.7043 -0.48768
      CHANNELS 3 Zrotation Xrotation Yrotation
      JOINT neck
      {
        OFFSET 0 22.1894 -2.19456
        CHANNELS 3 Zrotation Xrotation Yrotation
        JOINT head
        {
          OFFSET -0.24384 7.07133 1.2192
          CHANNELS 3 Zrotation Xrotation Yrotation
          JOINT leftEye
          {
            OFFSET 4.14528 8.04674 8.04672
            CHANNELS 3 Zrotation Xrotation Yrotation
            End Site
            {
              OFFSET 1 0 0
            }
          }
          JOINT rightEye
          {
            OFFSET -3.6576 8.04674 8.04672
            CHANNELS 3 Zrotation Xrotation Yrotation
            End Site
            {
              OFFSET 1 0 0
            }
          }
        }
      }
      JOINT rCollar
      {
        OFFSET -2.68224 19.2634 -4.8768
        CHANNELS 3 Zrotation Xrotation Yrotation
        JOINT rShldr
        {
          OFFSET -8.77824 -1.95073 1.46304
          CHANNELS 3 Zrotation Xrotation Yrotation
          JOINT rForeArm
          {
            OFFSET -28.1742 -1.7115 0.48768
            CHANNELS 3 Zrotation Xrotation Yrotation
            JOINT rHand
            {
              OFFSET -22.5879 0.773209 7.07136
              CHANNELS 3 Zrotation Xrotation Yrotation
              JOINT rThumb1
              {
                OFFSET -1.2192 -0.487915 3.41376
                CHANNELS 3 Zrotation Xrotation Yrotation
                JOINT rThumb2
                {
                  OFFSET -3.37035 -0.52449 3.41376
                  CHANNELS 3 Zrotation Xrotation Yrotation
                  End Site
                  {
                    OFFSET -1.78271 -1.18214 1.43049
                  }
                }
              }
              JOINT rIndex1
              {
                OFFSET -7.75947 0.938293 5.60832
                CHANNELS 3 Zrotation Xrotation Yrotation
                JOINT rIndex2
                {
                  OFFSET -2.54057 -0.884171 1.56538
                  CHANNELS 3 Zrotation Xrotation Yrotation
                  End Site
                  {
                    OFFSET -1.62519 -0.234802 1.16502
                  }
                }
              }
              JOINT rMid1
              {
                OFFSET -8.24714 1.18213 3.41376
                CHANNELS 3 Zrotation Xrotation Yrotation
                JOINT rMid2
                {
                  OFFSET -3.10165 -0.590103 1.0647
                  CHANNELS 3 Zrotation Xrotation Yrotation
                  End Site
                  {
                    OFFSET -2.48547 -0.328903 0.83742
                  }
                }
              }
              JOINT rRing1
              {
                OFFSET -8.82822 0.546677 1.51678
                CHANNELS 3 Zrotation Xrotation Yrotation
                JOINT rRing2
                {
                  OFFSET -2.60934 -0.819778 -0.0198488
                  CHANNELS 3 Zrotation Xrotation Yrotation
                  End Site
                  {
                    OFFSET -2.33842 -0.294052 0.168128
                  }
                }
              }
              JOINT rPinky1
              {
                OFFSET -8.27202 -0.0477905 -0.4584
                CHANNELS 3 Zrotation Xrotation Yrotation
                JOINT rPinky2
                {
                  OFFSET -1.82734 -0.647385 -0.700984
                  CHANNELS 3 Zrotation Xrotation Yrotation
                  End Site
                  {
                    OFFSET -1.69225 -0.51767 -0.607171
                  }
                }
              }
            }
          }
        }
      }
      JOINT lCollar
      {
        OFFSET 2.68224 19.2634 -4.8768
        CHANNELS 3 Zrotation Xrotation Yrotation
        JOINT lShldr
        {
          OFFSET 8.77824 -1.95073 1.46304
          CHANNELS 3 Zrotation Xrotation Yrotation
          JOINT lForeArm
          {
            OFFSET 28.1742 -1.7115 0.48768
            CHANNELS 3 Zrotation Xrotation Yrotation
            JOINT lHand
            {
              OFFSET 22.5879 0.773209 7.07136
              CHANNELS 3 Zrotation Xrotation Yrotation
              JOINT lThumb1
              {
                OFFSET 1.2192 -0.487915 3.41376
                CHANNELS 3 Zrotation Xrotation Yrotation
                JOINT lThumb2
                {
                  OFFSET 3.37035 -0.52449 3.41376
                  CHANNELS 3 Zrotation Xrotation Yrotation
                  End Site
                  {
                    OFFSET 1.78271 -1.18214 1.43049
                  }
                }
              }
              JOINT lIndex1
              {
                OFFSET 7.75947 0.938293 5.60832
                CHANNELS 3 Zrotation Xrotation Yrotation
                JOINT lIndex2
                {
                  OFFSET 2.54057 -0.884171 1.56538
                  CHANNELS 3 Zrotation Xrotation Yrotation
                  End Site
                  {
                    OFFSET 1.62519 -0.234802 1.16502
                  }
                }
              }
              JOINT lMid1
              {
                OFFSET 8.24714 1.18213 3.41376
                CHANNELS 3 Zrotation Xrotation Yrotation
                JOINT lMid2
                {
                  OFFSET 3.10165 -0.590103 1.0647
                  CHANNELS 3 Zrotation Xrotation Yrotation
                  End Site
                  {
                    OFFSET 2.48547 -0.328903 0.83742
                  }
                }
              }
              JOINT lRing1
              {
                OFFSET 8.82822 0.546677 1.51678
                CHANNELS 3 Zrotation Xrotation Yrotation
                JOINT lRing2
                {
                  OFFSET 2.60934 -0.819778 -0.0198488
                  CHANNELS 3 Zrotation Xrotation Yrotation
                  End Site
                  {
                    OFFSET 2.33842 -0.294052 0.168128
                  }
                }
              }
              JOINT lPinky1
              {
                OFFSET 8.27202 -0.0477905 -0.4584
                CHANNELS 3 Zrotation Xrotation Yrotation
                JOINT lPinky2
                {
                  OFFSET 1.82734 -0.647385 -0.700984
                  CHANNELS 3 Zrotation Xrotation Yrotation
                  End Site
                  {
                    OFFSET 1.69225 -0.51767 -0.607171
                  }
                }
              }
            }
          }
        }
      }
    }
  }
  JOINT rButtock
  {
    OFFSET -8.77824 4.35084 1.2192
    CHANNELS 3 Zrotation Xrotation Yrotation
    JOINT rThigh
    {
      OFFSET 0 -1.70687 -2.19456
      CHANNELS 3 Zrotation Xrotation Yrotation
      JOINT rShin
      {
        OFFSET 0 -36.8199 0.73152
        CHANNELS 3 Zrotation Xrotation Yrotation
        JOINT rFoot
        {
          OFFSET 0.73152 -45.1104 -5.12064
          CHANNELS 3 Zrotation Xrotation Yrotation
          End Site
          {
            OFFSET -1.1221 -3.69964 12.103
          }
        }
      }
    }
  }
  JOINT lButtock
  {
    OFFSET 8.77824 4.35084 1.2192
    CHANNELS 3 Zrotation Xrotation Yrotation
    JOINT lThigh
    {
      OFFSET 0 -1.70687 -2.19456
      CHANNELS 3 Zrotation Xrotation Yrotation
      JOINT lShin
      {
        OFFSET 0 -36.8199 0.73152
        CHANNELS 3 Zrotation Xrotation Yrotation
        JOINT lFoot
        {
          OFFSET -0.73152 -45.1104 -5.12064
          CHANNELS 3 Zrotation Xrotation Yrotation
          End Site
          {
            OFFSET 1.1221 -3.69964 12.103
          }
        }
      }
    }
  }
}
MOTION
Frames:	5
Frame Time:	0.00833333
-12.8576 83.8211 35.2452 -6.1992 -9.0973 -2.8953 15.5802 22.8524 -2.68092 1.77086 0.0680848 0.0917392 0.190566 15.667 -8.99584 30.5842 25.3724 -25.1036 -0.0 0.0 0.0 -0.0 0.0 0.0 3.42167e-14 -1.08123e-13 -1.27172e-13 20.8788 17.3264 27.0197 -21.9883 -51.6341 109.136 -0.114762 -9.61569 -1.36436 -6.86777e-11 2.59853e-10 3.78909e-10 -1.18934e-10 4.47113e-10 6.54361e-10 -6.86749e-11 2.59852e-10 3.78893e-10 7.73091 5.47488 0.417314 -6.86802e-11 2.59856e-10 3.78903e-10 2.90554 0.965183 0.102902 -6.86753e-11 2.59856e-10 3.7891e-10 10.2786 0.731801 0.0259123 -6.86843e-11 2.59858e-10 3.78915e-10 2.22167 -0.733487 -0.20892 3.41676e-14 -1.08155e-13 -1.27222e-13 -123.683 57.1204 75.582 28.2793 -38.5385 -81.3407 0.0293854 4.88735 -0.68856 -3.66047e-10 3.03209e-10 2.86555e-10 -6.29499e-10 5.26716e-10 4.94733e-10 -3.66052e-10 3.0321e-10 2.86562e-10 -7.73091 5.47488 -0.417314 -3.66044e-10 3.03224e-10 2.86558e-10 -2.90554 0.965183 -0.102902 -3.66053e-10 3.03209e-10 2.86555e-10 -10.2786 0.731801 -0.0259123 -3.6604e-10 3.03225e-10 2.86546e-10 -2.22167 -0.733487 0.20892 -2.03217e-16 0.0 -3.88251e-19 -21.6733 -3.32912 -0.0148138 -0.00133911 -0.241001 -0.0117302 0.702452 3.58657 -0.043394 2.03217e-16 0.0 3.88251e-19 17.9933 -4.97627 0.0871988 0.0842232 25.2093 -0.656301 3.61979 -15.0376 13.9668
-12.7617 83.821 35.2266 -6.403 -9.077 -2.8111 15.1482 22.8717 -2.42149 1.67059 0.109284 0.139813 0.263744 15.6728 -8.96773 30.5878 25.471 -25.065 -0.0 0.0 0.0 -0.0 0.0 0.0 1.83532e-14 -8.40013e-14 -1.43666e-13 19.1191 17.2892 27.9746 -21.8588 -51.7577 109.485 -0.117258 -9.71228 -1.37836 7.27048e-11 3.20716e-10 1.40943e-10 1.27925e-10 5.57385e-10 2.42593e-10 7.27098e-11 3.20715e-10 1.40929e-10 7.73091 5.47488 0.417314 7.27028e-11 3.20718e-10 1.40937e-10 2.90554 0.965183 0.102902 7.27076e-11 3.20718e-10 1.40944e-10 10.2786 0.731801 0.0259123 7.26988e-11 3.2072e-10 1.40949e-10 2.22167 -0.733487 -0.20892 1.83006e-14 -8.40221e-14 -1.43721e-13 -123.422 57.5425 75.4275 28.2865 -38.4718 -81.2247 0.0313708 5.04931 -0.711495 -3.75457e-10 1.41009e-10 2.26381e-10 -6.45543e-10 2.46218e-10 3.90319e-10 -3.75462e-10 1.4101e-10 2.26385e-10 -7.73091 5.47488 -0.417314 -3.75454e-10 1.41023e-10 2.26384e-10 -2.90554 0.965183 -0.102902 -3.75463e-10 1.4101e-10 2.26381e-10 -10.2786 0.731801 -0.0259123 -3.75451e-10 1.41025e-10 2.26371e-10 -2.22167 -0.733487 0.20892 -2.03217e-16 0.0 -3.88251e-19 -21.6799 -3.31134 -0.0145529 -0.00124409 -0.263771 -0.0108765 0.700269 3.59127 -0.0430314 2.03217e-16 0.0 3.88251e-19 17.9499 -5.0656 -0.112131 0.0827825 25.0931 -0.654787 3.71624 -15.2764 14.0949
-12.6474 83.817 35.2052 -6.5747 -9.0055 -2.7081 14.761 22.8984 -2.14623 1.54907 0.0831653 0.196432 0.358471 15.7062 -8.96228 30.6032 25.599 -25.0798 -0.0 0.0 0.0 -0.0 0.0 0.0 8.25888e-15 -1.7689e-14 -1.29334e-13 17.4234 17.259 28.7968 -21.7385 -51.8712 109.806 -0.121284 -9.86262 -1.40019 3.17009e-10 2.05318e-10 -4.12445e-10 5.55658e-10 3.68525e-10 -7.15056e-10 3.17016e-10 2.05317e-10 -4.12457e-10 7.73091 5.47488 0.417314 3.17008e-10 2.05319e-10 -4.12451e-10 2.90554 0.965183 0.102902 3.17013e-10 2.05318e-10 -4.12444e-10 10.2786 0.731801 0.0259123 3.17004e-10 2.05319e-10 -4.12439e-10 2.22167 -0.733487 -0.20892 8.18492e-15 -1.76952e-14 -1.29424e-13 -123.27 57.9872 75.4435 28.2933 -38.4077 -81.113 0.0333828 5.20905 -0.734126 -2.81478e-10 -3.19443e-10 -6.51209e-11 -4.83739e-10 -5.5055e-10 -1.14652e-10 -2.81483e-10 -3.19443e-10 -6.51183e-11 -7.73091 5.47488 -0.417314 -2.81475e-10 -3.19434e-10 -6.51179e-11 -2.90554 0.965183 -0.102902 -2.81485e-10 -3.19441e-10 -6.512e-11 -10.2786 0.731801 -0.0259123 -2.81474e-10 -3.1943e-10 -6.51286e-11 -2.22167 -0.733487 0.20892 -2.03217e-16 0.0 -3.88251e-19 -21.6877 -3.29257 -0.014262 -0.00115309 -0.288673 -0.0100548 0.698836 3.59709 -0.0427655 2.03217e-16 0.0 3.88251e-19 17.9115 -5.14683 -0.397295 0.081171 24.9695 -0.653714 3.8299 -15.4992 14.2845
-12.5087 83.808 35.1724 -6.6737 -8.9078 -2.5704 14.3679 22.9316 -1.85733 1.4303 0.0615201 0.256945 0.464328 15.7284 -8.95287 30.5931 25.7345 -25.0818 -0.0 0.0 0.0 -0.0 0.0 0.0 -1.57305e-15 5.42888e-14 -9.40306e-14 15.8088 17.1791 29.533 -21.62 -51.9819 110.12 -0.127264 -10.0983 -1.43437 5.959e-10 6.84908e-11 -9.71874e-10 1.04291e-09 1.42388e-10 -1.68249e-09 5.95907e-10 6.84902e-11 -9.71884e-10 7.73091 5.47488 0.417314 5.95899e-10 6.8491e-11 -9.71879e-10 2.90554 0.965183 0.102902 5.95904e-10 6.84905e-11 -9.71874e-10 10.2786 0.731801 0.0259123 5.95896e-10 6.84903e-11 -9.71868e-10 2.22167 -0.733487 -0.20892 -1.66823e-15 5.42969e-14 -9.41606e-14 -123.124 58.4342 75.4771 28.299 -38.3527 -81.0174 0.0353722 5.36166 -0.75576 -1.24375e-10 -8.02639e-10 -4.27872e-10 -2.13408e-10 -1.38699e-09 -7.42878e-10 -1.2438e-10 -8.02639e-10 -4.2787e-10 -7.73091 5.47488 -0.417314 -1.24373e-10 -8.02635e-10 -4.27869e-10 -2.90554 0.965183 -0.102902 -1.24382e-10 -8.02636e-10 -4.2787e-10 -10.2786 0.731801 -0.0259123 -1.24373e-10 -8.02628e-10 -4.27877e-10 -2.22167 -0.733487 0.20892 -2.03217e-16 0.0 -3.88251e-19 -21.6946 -3.27613 -0.0140061 -0.00107322 -0.309995 -0.00933598 0.697629 3.60171 -0.0425442 2.03217e-16 0.0 3.88251e-19 17.8686 -5.22956 -0.677015 0.0797857 24.8673 -0.653109 3.93639 -15.6856 14.4728
-12.3378 83.7989 35.1357 -6.6527 -8.8162 -2.447 13.9178 22.9702 -1.55697 1.338 0.116137 0.316703 0.570901 15.7005 -8.9129 30.5194 25.8554 -25.0042 -0.0 0.0 0.0 -0.0 0.0 0.0 -1.66496e-14 9.54073e-14 -4.76089e-14 14.2955 16.993 30.2289 -21.4952 -52.0968 110.448 -0.135866 -10.4511 -1.48549 8.41042e-10 6.50678e-11 -1.22796e-09 1.46832e-09 1.40832e-10 -2.12361e-09 8.41051e-10 6.5067e-11 -1.22797e-09 7.73091 5.47488 0.417314 8.41042e-10 6.50672e-11 -1.22797e-09 2.90554 0.965183 0.102902 8.41048e-10 6.50667e-11 -1.22796e-09 10.2786 0.731801 0.0259123 8.4104e-10 6.50662e-11 -1.22796e-09 2.22167 -0.733487 -0.20892 -1.67474e-14 9.54256e-14 -4.7758e-14 -122.869 58.8632 75.3647 28.3029 -38.3133 -80.9493 0.0372754 5.50226 -0.775701 5.55865e-11 -1.03307e-09 -7.01796e-10 9.61287e-11 -1.78649e-09 -1.21706e-09 5.55806e-11 -1.03307e-09 -7.01793e-10 -7.73091 5.47488 -0.417314 5.55879e-11 -1.03307e-09 -7.01793e-10 -2.90554 0.965183 -0.102902 5.5579e-11 -1.03307e-09 -7.01793e-10 -10.2786 0.731801 -0.0259123 5.55864e-11 -1.03306e-09 -7.01799e-10 -2.22167 -0.733487 0.20892 -2.03217e-16 0.0 -3.88251e-19 -21.698 -3.26538 -0.0138499 -0.00101194 -0.322024 -0.00879103 0.696121 3.60284 -0.0423153 2.03217e-16 0.0 3.88251e-19 17.8123 -5.32356 -0.859982 0.0790229 24.8154 -0.652997 4.01012 -15.8154 14.5964
